<svg width="510" height="424" viewBox="0 0 510 424" fill="none" xmlns="http://www.w3.org/2000/svg">
<path fill-rule="evenodd" clip-rule="evenodd" d="M224 0C190.863 0 164 26.8629 164 60V64H60C26.8629 64 0 90.8629 0 124V162.188L255.035 309.433L510 162.229V124C510 90.8629 483.137 64 450 64H345V60C345 26.8629 318.137 0 285 0H224ZM510 208.417L255.106 355.58L255.07 355.641L255.035 355.621L255 355.641L254.965 355.58L0 208.376V364C0 397.137 26.8629 424 60 424H450C483.137 424 510 397.137 510 364V208.417ZM210 50C210 47.7909 211.791 46 214 46H296C298.209 46 300 47.7909 300 50V62C300 64.2091 298.209 66 296 66H214C211.791 66 210 64.2091 210 62V50Z" fill="#FF9944"/>
</svg>
