<svg width="280" height="74" viewBox="0 0 280 74" fill="none" xmlns="http://www.w3.org/2000/svg">
<path d="M134.158 56.8164H125.493C125.459 56.8164 125.435 56.8048 125.412 56.7815L117.947 47.6626L110.458 56.7815C110.447 56.8048 110.412 56.8164 110.377 56.8164H103.436C103.389 56.8164 103.366 56.7931 103.331 56.7465C103.319 56.7232 103.319 56.665 103.343 56.6417L114.348 43.1322L103.471 29.7508C103.436 29.7042 103.436 29.6693 103.447 29.6227C103.471 29.5994 103.506 29.5645 103.541 29.5645H112.217C112.24 29.5645 112.275 29.5761 112.298 29.6227L118.855 37.7401L125.528 29.6111C125.552 29.5761 125.575 29.5645 125.61 29.5645H132.679C132.726 29.5645 132.761 29.5994 132.784 29.6227C132.807 29.6693 132.796 29.7159 132.772 29.7508L122.454 42.1423L134.24 56.6417C134.275 56.6767 134.286 56.7232 134.263 56.7465C134.228 56.7931 134.193 56.8164 134.158 56.8164Z" fill="#888888"/>
<path d="M181.067 34.3528C177.224 34.3528 174.603 36.682 173.858 40.7349H186.913V40.4787C186.925 37.2294 184.538 34.3528 181.067 34.3528ZM193.656 44.8925C193.633 44.9275 193.598 44.9391 193.563 44.9391H173.718C174.126 49.5626 177.131 52.1947 181.987 52.1947C184.98 52.1947 188.148 51.1698 192.643 48.7824C192.725 48.7358 192.806 48.8056 192.806 48.8872L192.795 54.9897C192.783 55.0363 192.76 55.0713 192.725 55.0829C188.555 56.8415 184.363 58.041 181.067 58.041C172.519 58.041 166.335 51.8103 166.335 43.2388C166.335 34.6673 172.53 28.4366 181.067 28.4366C188.858 28.4366 193.866 33.689 193.866 40.9096C193.878 42.0858 193.668 44.7994 193.656 44.8925Z" fill="#888888"/>
<path d="M233.967 23.919C231.533 23.919 229.553 21.9741 229.553 19.575C229.553 17.1061 231.533 15.1029 233.967 15.1029C236.401 15.1029 238.38 17.1061 238.38 19.575C238.38 21.9741 236.401 23.919 233.967 23.919ZM230.403 56.8193C230.333 56.8193 230.286 56.7728 230.286 56.7029V29.6606C230.286 29.6023 230.321 29.5674 230.368 29.5558H237.53C237.588 29.5674 237.623 29.614 237.623 29.6606V56.7029C237.623 56.7728 237.577 56.8193 237.519 56.8193H230.403Z" fill="#888888"/>
<path d="M147.257 52.7458C145.965 52.7458 144.637 52.5595 143.123 52.1519L143.135 34.8108C144.916 34.2401 146.465 33.9723 148.003 33.9723C152.975 33.9723 156.306 37.6408 156.306 43.0795C156.306 48.9492 152.754 52.7458 147.257 52.7458ZM149.214 28.4404C147.187 28.4404 145.149 28.813 143.006 29.5467H135.879C135.821 29.5467 135.774 29.5933 135.774 29.6632V74C137.929 73.7088 140.572 72.9402 143.135 71.1118V57.6255C144.893 57.8701 146.349 58.0448 147.746 58.0448C157.517 58.0448 163.83 52.1868 163.83 43.1261C163.818 34.4847 157.809 28.4404 149.214 28.4404Z" fill="#888888"/>
<path d="M217.35 50.5007C215.114 51.677 213.123 52.2244 211.248 52.2244C206.822 52.2244 204.178 49.1032 204.178 43.8625C204.178 37.8065 207.567 33.8934 212.796 33.8934C214.241 33.8934 215.65 34.2428 217.35 35.023V50.5007ZM217.35 15.2363V29.3863C215.254 28.7924 213.414 28.5129 211.55 28.5129C203.049 28.5129 196.632 34.9182 196.632 43.4315C196.632 51.8983 202.292 58.0474 210.083 58.0474C212.785 58.0474 215.3 57.372 218.27 55.8463V58.292C220.227 57.9193 222.486 57.139 224.699 55.5668V12.3597C222.521 12.6276 219.936 13.3613 217.35 15.2363Z" fill="#888888"/>
<path d="M262.458 50.441C260.303 51.6871 258.451 52.2811 256.798 52.2811C252.058 52.2811 249.228 49.1715 249.228 43.9191C249.228 37.9563 252.57 33.9501 257.543 33.9501C258.871 33.9501 260.49 34.4625 262.469 35.5106V50.441H262.458ZM269.818 29.2217C269.818 29.0587 269.678 28.9189 269.515 28.9189L263.727 28.9306C263.552 28.9306 263.413 29.082 263.413 29.245V30.2349H263.261C260.583 29.0587 258.312 28.523 256.064 28.523C248.051 28.523 241.774 35.1613 241.774 43.6746C241.774 52.2811 247.399 58.0459 255.761 58.0459C257.997 58.0459 260.874 57.8945 263.552 54.7966V58.2788C265.451 57.8712 267.687 57.0676 269.818 55.542C269.806 55.542 269.818 29.2217 269.818 29.2217Z" fill="#888888"/>
<path d="M83.5999 50.0446L101.593 50.0329C101.325 52.0477 100.638 54.4002 99.0776 56.7993H80.3622C78.0679 56.7993 76.1929 55.0291 75.96 52.7814C75.9484 52.7465 75.9367 52.7115 75.9367 52.6882V17.2141C75.9367 17.1909 75.9484 17.1443 75.96 17.121C76.1813 14.8733 78.0679 13.0914 80.3622 13.0914C80.4321 13.0914 80.502 13.1031 80.5719 13.1031H101.558C101.279 15.1062 100.603 17.5286 99.0426 19.916H83.5999V29.5707H98.8796C98.9378 29.5707 98.9844 29.6173 98.9844 29.6755V36.372C98.9844 36.4302 98.9378 36.4768 98.8796 36.4768H83.5999V50.0446Z" fill="#888888"/>
<path d="M61.0878 62.3682C59.3059 62.3682 58.2112 60.9824 58.2112 59.282C58.2112 57.4652 59.469 56.1958 61.0878 56.1958C62.6949 56.1958 63.9411 57.4652 63.9411 59.282C63.9411 61.0988 62.6833 62.3682 61.0878 62.3682ZM61.0878 55.8348C59.271 55.8348 57.7104 57.209 57.7104 59.2704C57.7104 61.2269 59.1196 62.6943 61.0878 62.6943C62.8813 62.6943 64.4535 61.3317 64.4535 59.2704C64.4418 57.209 62.8813 55.8348 61.0878 55.8348Z" fill="#888888"/>
<path d="M60.2716 58.9944V57.7367H61.1217C61.5526 57.7367 62.0534 57.8065 62.0534 58.319C62.0534 58.9362 61.5876 58.9828 61.0518 58.9828H60.2716V58.9944ZM62.6823 58.4121C62.6823 57.5969 62.1815 57.2475 61.2032 57.2475H59.666V61.312H60.3414V59.5767H60.9587L62.0068 61.312H62.7638L61.6225 59.5302C62.2281 59.4486 62.6823 59.1458 62.6823 58.4121Z" fill="#888888"/>
<path d="M275.737 34.0523C273.955 34.0523 272.848 32.6664 272.848 30.9661C272.848 29.1493 274.106 27.8799 275.737 27.8799C277.332 27.8799 278.59 29.1493 278.59 30.9661C278.59 32.7829 277.332 34.0523 275.737 34.0523ZM275.737 27.5189C273.92 27.5189 272.359 28.8931 272.359 30.9545C272.359 32.911 273.757 34.3784 275.737 34.3784C277.53 34.3784 279.091 33.0158 279.091 30.9545C279.091 28.8931 277.53 27.5189 275.737 27.5189Z" fill="#888888"/>
<path d="M274.92 30.6785V29.4324H275.771C276.201 29.4324 276.702 29.4906 276.702 30.0147C276.702 30.6319 276.236 30.6785 275.712 30.6785H274.92ZM277.331 30.0962C277.331 29.281 276.83 28.9316 275.852 28.9316H274.315V32.9961H274.979V31.2608H275.608L276.656 32.9961H277.413L276.271 31.2142C276.877 31.1327 277.331 30.8299 277.331 30.0962Z" fill="#888888"/>
<path d="M37.8797 24.8726L36.5754 21.1808L25.5116 6.39022L27.503 5.90109L46.5794 22.392L57.8063 19.1777C59.1223 18.8399 60.6246 18.7584 61.7659 18.77C58.2372 11.1651 51.7852 4.91117 43.2603 1.88317C26.3967 -4.11458 7.86769 4.68989 1.88158 21.5418C0.0298459 26.7593 -0.412707 32.1398 0.367584 37.2524L27.2585 27.9123L37.8797 24.8726Z" fill="#888888"/>
<path d="M62.9487 21.6911C61.9587 22.3316 60.5146 23.1701 59.0822 23.636L47.832 26.8503L40.3203 50.9461L38.3754 51.575L39.9592 33.1742L39.0741 29.3542L28.5344 32.3589L0.653564 38.9157C2.85468 49.6418 10.448 58.982 21.5234 62.93C38.3754 68.9394 56.9043 60.1233 62.8904 43.283C65.4759 36.0158 65.3128 28.4342 62.9487 21.6911Z" fill="#888888"/>
<path d="M39.0681 29.351L39.9532 33.1709L38.3693 51.5718L40.3142 50.9429L47.826 26.8471L59.0761 23.6327C60.5086 23.1669 61.9644 22.3284 62.9426 21.6878C62.5933 20.6979 62.1973 19.7196 61.7664 18.7763C60.6251 18.7647 59.1227 18.8462 57.8067 19.1839L46.5798 22.3982L27.4918 5.89569L25.512 6.39647L36.5758 21.187L37.8802 24.8789L27.2473 27.9185L0.356384 37.247C0.437907 37.8061 0.542722 38.3651 0.647537 38.9124L28.5167 32.3557L39.0681 29.351Z" fill="#999999"/>
</svg>
