<svg width="315" height="63" viewBox="0 0 315 63" fill="none" xmlns="http://www.w3.org/2000/svg">
<path d="M306.637 18.9904C306.334 18.9904 306.095 18.7413 306.095 18.4488V14.7873H305.055C304.795 14.7873 304.579 14.5706 304.579 14.3106C304.579 14.0398 304.795 13.834 305.055 13.834H308.219C308.468 13.834 308.684 14.0398 308.684 14.3106C308.684 14.5706 308.468 14.7873 308.219 14.7873H307.168V18.4488C307.168 18.7413 306.929 18.9904 306.637 18.9904ZM314.458 18.9904C314.166 18.9904 313.928 18.7413 313.928 18.4488V15.2639L312.563 18.7955C312.519 18.9146 312.4 18.9904 312.27 18.9904C312.14 18.9904 312.032 18.9146 311.988 18.7955L310.624 15.2639V18.4488C310.624 18.7413 310.396 18.9904 310.104 18.9904C309.8 18.9904 309.562 18.7413 309.562 18.4488V14.6681C309.562 14.1806 309.952 13.7798 310.439 13.7798C310.819 13.7798 311.133 14.0181 311.263 14.3539L312.281 17.0188L313.31 14.3539C313.429 14.0181 313.754 13.7798 314.123 13.7798C314.61 13.7798 315 14.1806 315 14.6681V18.4488C315 18.7413 314.762 18.9904 314.458 18.9904Z" fill="#888888"/>
<path d="M38.4462 12.2308C38.4462 10.4 39.0204 8.71004 39.9737 7.30176C37.0812 8.15756 34.9472 10.8008 34.9472 13.9749V19.5647L38.4462 19.738V12.2308Z" fill="#888888"/>
<path d="M34.958 50.6656C34.958 53.8396 37.0812 56.4829 39.9845 57.3387C39.0203 55.9304 38.4462 54.2404 38.4462 52.4097V41.9233H34.958V50.6656Z" fill="#888888"/>
<path d="M43.6894 41.9233H40.1903V52.4097C40.1903 55.5837 42.3136 58.227 45.2168 59.0828C44.2527 57.6745 43.6894 55.9845 43.6894 54.1538V41.9233Z" fill="#888888"/>
<path d="M43.6894 10.4754C43.6894 8.64462 44.2635 6.95467 45.2168 5.54639C42.3244 6.40219 40.1903 9.04544 40.1903 12.2195V19.8242L43.6894 19.9976V10.4754Z" fill="#888888"/>
<path d="M4.28986 8.24414C1.73328 9.77159 0 12.534 0 15.7189V48.922C0 52.1177 1.73328 54.8801 4.28986 56.3967C3.78071 55.1726 3.49905 53.8293 3.49905 52.4102V12.2198C3.49905 10.8116 3.79154 9.46827 4.28986 8.24414Z" fill="#888888"/>
<path d="M8.74221 8.73165C8.74221 7.32336 9.02387 5.98008 9.53302 4.74512C6.97644 6.27257 5.24316 9.03497 5.24316 12.2199V52.4102C5.24316 56.1692 7.62642 59.3325 10.9521 60.5674C9.57635 58.8016 8.74221 56.5809 8.74221 54.1651V8.73165Z" fill="#888888"/>
<path d="M52.4208 3.48822C48.5642 3.48822 45.4335 6.61895 45.4335 10.4755V21.8284L27.9599 20.951V8.73138C27.9599 3.9107 24.0492 0 19.2177 0C14.397 0 10.4863 3.9107 10.4863 8.73138V54.1649C10.4863 58.9855 14.397 62.8962 19.2177 62.8962C24.0384 62.8962 27.9599 58.9855 27.9599 54.1649V40.1903H45.4335V54.1649C45.4335 58.0214 48.5642 61.1521 52.4208 61.1521C56.2773 61.1521 59.408 58.0214 59.408 54.1649V10.4755C59.408 6.61895 56.2881 3.48822 52.4208 3.48822Z" fill="#888888"/>
<path d="M102.75 46.0402V33.1056H83.8786V46.0402C83.8786 47.416 82.7519 48.5968 81.3761 48.5968C79.9462 48.5968 78.7654 47.4268 78.7654 46.0402V16.5312C78.7654 15.1554 79.9462 13.9746 81.322 13.9746C82.7519 13.9746 83.8786 15.1446 83.8786 16.5312V28.5558H102.75V16.5312C102.75 15.1554 103.876 13.9746 105.306 13.9746C106.736 13.9746 107.863 15.1446 107.863 16.5312V46.0402C107.863 47.416 106.736 48.5968 105.306 48.5968C103.876 48.5968 102.75 47.4268 102.75 46.0402Z" fill="#888888"/>
<path d="M111.481 35.9658C111.481 28.8594 116.291 23.0312 123.961 23.0312C131.684 23.0312 136.44 28.8594 136.44 35.9658C136.44 43.1264 131.684 48.9546 123.961 48.9546C116.291 48.9546 111.481 43.1264 111.481 35.9658ZM131.63 35.9658C131.63 31.3076 128.911 27.1153 123.961 27.1153C119.053 27.1153 116.291 31.3076 116.291 35.9658C116.291 40.6673 119.053 44.8705 123.961 44.8705C128.922 44.8705 131.63 40.6673 131.63 35.9658Z" fill="#888888"/>
<path d="M163.198 23.0312C170.618 23.0312 175.222 28.8161 175.222 35.305C175.222 36.6916 174.247 37.5041 172.503 37.5041H155.679C156.037 41.6965 159.114 45.1738 164.064 45.1738C166.166 45.1738 168.365 44.5022 170.207 43.1806C170.467 42.9747 170.824 42.9314 171.225 42.9314C172.243 42.9314 173.066 43.7439 173.066 44.773C173.066 45.4338 172.763 45.943 172.254 46.3113C169.795 48.0987 166.881 48.9654 163.609 48.9654C156.243 48.9654 150.826 43.7439 150.826 35.9766C150.815 28.8052 155.983 23.0312 163.198 23.0312ZM155.625 34.1784H170.716C170.618 30.9068 168.408 26.812 163.198 26.812C158.236 26.812 155.885 30.7985 155.625 34.1784Z" fill="#888888"/>
<path d="M178.147 46.3002V16.2712C178.147 14.9929 179.165 13.9746 180.454 13.9746C181.679 13.9746 182.751 14.9929 182.751 16.2712V46.3002C182.751 47.5785 181.679 48.6076 180.454 48.6076C179.165 48.5968 178.147 47.5785 178.147 46.3002Z" fill="#888888"/>
<path d="M185.708 44.556C185.708 43.4293 186.575 42.5627 187.702 42.5627C188.113 42.5627 188.514 42.7144 188.828 42.9202C190.724 44.3068 193.172 45.2709 195.783 45.2709C199.261 45.2709 201.102 43.841 201.102 41.7394C201.102 39.2911 198.286 38.4678 195.122 37.7529C190.93 36.7779 186.023 35.6513 186.023 30.3323C186.023 26.3999 189.392 23.02 195.426 23.02C198.86 23.02 201.568 24.0383 203.659 25.5766C204.114 25.9341 204.471 26.4432 204.471 27.1149C204.471 28.1332 203.605 28.9998 202.586 28.9998C202.229 28.9998 201.817 28.8482 201.568 28.6423C199.986 27.4724 197.831 26.7574 195.48 26.7574C192.36 26.7574 190.41 27.9815 190.41 29.9748C190.41 32.1197 193.075 32.8347 196.141 33.5497C200.441 34.5246 205.555 35.6946 205.555 41.3711C205.555 45.6176 202.077 48.9433 195.577 48.9433C192.143 48.9433 189.078 48.0767 186.575 46.1809C186.066 45.8343 185.708 45.2276 185.708 44.556Z" fill="#888888"/>
<path d="M211.588 42.5083C213.322 42.5083 214.806 43.9383 214.806 45.6824C214.806 47.4265 213.322 48.8998 211.588 48.8998C209.855 48.8998 208.414 47.4156 208.414 45.6824C208.425 43.9491 209.855 42.5083 211.588 42.5083Z" fill="#888888"/>
<path d="M238.714 35.9658C238.714 28.8594 243.524 23.0312 251.194 23.0312C258.918 23.0312 263.673 28.8594 263.673 35.9658C263.673 43.1264 258.918 48.9546 251.194 48.9546C243.513 48.9546 238.714 43.1264 238.714 35.9658ZM258.864 35.9658C258.864 31.3076 256.144 27.1153 251.194 27.1153C246.286 27.1153 243.524 31.3076 243.524 35.9658C243.524 40.6673 246.286 44.8705 251.194 44.8705C256.155 44.8705 258.864 40.6673 258.864 35.9658Z" fill="#888888"/>
<path d="M301.751 30.4948V46.3001C301.751 47.5784 300.679 48.5967 299.401 48.5967C298.176 48.5967 297.147 47.5784 297.147 46.3001V31.8706C297.147 29.0107 295.869 27.624 292.847 27.624C290.344 27.624 287.885 30.4406 286.704 32.2389V46.3001C286.704 47.5784 285.686 48.5967 284.408 48.5967C283.184 48.5967 282.1 47.5784 282.1 46.3001V31.8706C282.1 29.0107 280.876 27.624 277.756 27.624C275.351 27.624 272.946 30.6139 271.722 32.4014V46.2892C271.722 47.5675 270.65 48.5858 269.426 48.5858C268.147 48.5858 267.118 47.5675 267.118 46.2892V25.6849C267.118 24.4066 268.137 23.3775 269.372 23.3775C270.65 23.3775 271.722 24.3958 271.722 25.6849V27.1149C272.741 25.5766 276.023 23.02 279.706 23.02C283.444 23.02 285.643 24.9591 286.412 27.624C287.842 25.3166 291.189 23.02 294.818 23.02C299.368 23.0309 301.751 25.5333 301.751 30.4948Z" fill="#888888"/>
<path d="M228.607 23.0313C232.139 23.0313 234.587 24.1579 236.483 25.8912C236.894 26.2487 237.198 26.8661 237.198 27.4295C237.198 28.5994 236.277 29.531 235.15 29.531C234.587 29.531 234.132 29.3252 233.764 29.0219C232.334 27.6894 230.752 27.1261 228.802 27.1261C223.949 27.1261 220.818 30.8635 220.818 35.9767C220.818 41.0898 223.938 44.7189 228.802 44.8814C232.084 45.0005 235.388 42.6065 238.032 38.4249C238.357 37.9049 238.844 36.9408 239.245 36.4317C239.993 35.4784 240.534 35.9333 240.978 36.3992C241.791 37.2441 241.78 39.2591 241.249 40.2557C239.754 43.0398 238.498 44.3289 237.078 45.7263C235.096 47.6546 232.128 48.9762 228.596 48.9762C221.132 48.9762 216.019 43.4081 216.019 35.9875C216.03 28.5453 221.143 23.0204 228.607 23.0313Z" fill="#888888"/>
<path d="M154.109 44.5558C154.109 45.4225 151.617 47.3724 149.83 48.239C148.811 48.7373 147.782 48.954 146.298 48.954C142.409 48.954 140.416 46.7549 140.416 42.8659V27.678H138.065C136.993 27.678 136.018 26.7572 136.018 25.6306C136.018 24.5582 136.993 23.6374 138.065 23.6374H140.416V18.9358C140.416 17.6575 141.434 16.6284 142.723 16.6284C143.947 16.6284 145.02 17.6467 145.02 18.9358V23.6374H148.248C149.364 23.6374 150.295 24.5582 150.295 25.6306C150.295 26.7572 149.375 27.678 148.248 27.678H145.02V41.8476C145.02 43.5809 145.843 44.87 147.425 44.87C150.241 44.87 152.451 40.4935 153.697 40.4935C154.867 40.4935 154.109 43.4292 154.109 44.5558Z" fill="#888888"/>
</svg>
