<svg width="367" height="62" viewBox="0 0 367 62" fill="none" xmlns="http://www.w3.org/2000/svg">
<mask id="mask0_69_15" style="mask-type:luminance" maskUnits="userSpaceOnUse" x="0" y="0" width="367" height="62">
<path d="M0 62H366.02V-1.02818e-05H0V62Z" fill="white"/>
</mask>
<g mask="url(#mask0_69_15)">
<mask id="mask1_69_15" style="mask-type:luminance" maskUnits="userSpaceOnUse" x="36" y="6" width="294" height="50">
<path d="M36.6021 55.8003H329.418V6.1881H36.6021V55.8003Z" fill="white"/>
</mask>
<g mask="url(#mask1_69_15)">
<path d="M151.435 11.6205C151.435 9.15995 153.424 7.16231 155.876 7.16231C158.341 7.16231 160.329 9.14777 160.329 11.6205C160.329 14.081 158.328 16.0786 155.876 16.0786C153.424 16.0786 151.435 14.081 151.435 11.6205Z" fill="#888888"/>
<path d="M221.638 41.244C221.638 38.7835 223.626 36.7858 226.079 36.7858C228.531 36.7858 230.532 38.7835 230.532 41.244C230.532 43.7045 228.531 45.7021 226.079 45.7021C223.626 45.7021 221.638 43.7045 221.638 41.244Z" fill="#999999"/>
<path d="M78.4017 39.3192C74.5706 39.3192 71.9109 36.2862 71.9109 31.9376C71.9109 27.6013 74.5706 24.5561 78.4017 24.5561C82.2571 24.5561 84.9534 27.5891 84.9534 31.9376C84.9534 36.3471 82.3181 39.3192 78.4017 39.3192ZM78.4017 18.0759C70.3004 18.0759 64.4075 23.9105 64.4075 31.9376C64.4075 39.9647 70.2882 45.7993 78.4017 45.7993C86.5395 45.7993 92.4446 39.9647 92.4446 31.9376C92.4446 23.9105 86.5395 18.0759 78.4017 18.0759Z" fill="#888888"/>
<path d="M142.809 32.6325C142.492 32.0357 142.138 31.5363 141.748 31.1465L141.504 30.8907L141.76 30.6471C142.138 30.2573 142.516 29.7944 142.882 29.2585L150.032 18.6368H141.345L135.965 26.9441C135.66 27.3948 135.049 27.6141 134.122 27.6141H132.902V11.9009C132.902 8.75825 130.938 8.33193 128.827 8.33193H125.204L125.216 45.3979H132.914V34.2769H133.634C134.513 34.2769 135.111 34.3744 135.379 34.8494L139.625 42.8522C140.808 45.0203 141.992 45.3979 144.212 45.3979H150.105L145.713 38.1504L142.809 32.6325Z" fill="#888888"/>
<path d="M180.18 18.0151C176.263 18.0151 173.762 19.757 172.371 21.2186L171.908 21.6937L171.737 21.0481C171.322 19.4768 169.943 18.612 167.857 18.612H164.404L164.429 45.3853H172.066V33.0462C172.066 31.8403 172.225 30.7927 172.542 29.8426C173.396 26.9558 175.763 25.153 178.728 25.153C181.119 25.153 182.046 26.4076 182.046 29.6599V41.3169C182.046 44.0941 183.328 45.3853 186.109 45.3853H189.745L189.733 28.3566C189.733 21.5963 186.427 18.0151 180.18 18.0151Z" fill="#888888"/>
<path d="M155.974 18.6247H152.35L152.374 39.3198V45.3979H159.975V45.3858H159.988L160 22.693C160 19.9524 158.682 18.6247 155.974 18.6247Z" fill="#888888"/>
<path d="M108.428 39.3192C104.597 39.3192 101.925 36.2862 101.925 31.9376C101.925 27.6013 104.597 24.5561 108.428 24.5561C112.271 24.5561 114.979 27.5891 114.979 31.9376C114.979 36.3471 112.344 39.3192 108.428 39.3192ZM108.428 18.0759C100.314 18.0759 94.4334 23.9105 94.4334 31.9376C94.4334 39.9647 100.314 45.7993 108.428 45.7993C116.553 45.7993 122.471 39.9647 122.471 31.9376C122.471 23.9105 116.553 18.0759 108.428 18.0759Z" fill="#888888"/>
</g>
</g>
<mask id="mask2_69_15" style="mask-type:luminance" maskUnits="userSpaceOnUse" x="0" y="0" width="367" height="62">
<path d="M0 62H366.02V-1.02818e-05H0V62Z" fill="white"/>
</mask>
<g mask="url(#mask2_69_15)">
<mask id="mask3_69_15" style="mask-type:luminance" maskUnits="userSpaceOnUse" x="0" y="1" width="366" height="61">
<path d="M0.0121765 61.8052H365.959V1.09633H0.0121765V61.8052Z" fill="white"/>
</mask>
<g mask="url(#mask3_69_15)">
<mask id="mask4_69_15" style="mask-type:luminance" maskUnits="userSpaceOnUse" x="36" y="6" width="294" height="50">
<path d="M36.602 55.8003H329.418V6.1881H36.602V55.8003Z" fill="white"/>
</mask>
<g mask="url(#mask4_69_15)">
<path d="M272.27 39.3192C268.439 39.3192 265.767 36.2862 265.767 31.9376C265.767 27.6013 268.439 24.5561 272.27 24.5561C276.114 24.5561 278.822 27.5891 278.822 31.9376C278.81 36.3471 276.175 39.3192 272.27 39.3192ZM272.27 18.0759C264.157 18.0759 258.276 23.9105 258.276 31.9376C258.276 39.9647 264.157 45.7993 272.27 45.7993C280.396 45.7993 286.313 39.9647 286.313 31.9376C286.313 23.9105 280.396 18.0759 272.27 18.0759Z" fill="#999999"/>
<path d="M205.85 38.1382C201.677 38.1382 200.189 34.4962 200.189 31.0856C200.189 29.5873 200.567 24.6907 205.447 24.6907C207.875 24.6907 211.108 25.385 211.108 31.3413C211.108 36.9689 208.253 38.1382 205.85 38.1382ZM215.086 18.5516C213.634 18.5516 212.524 19.1241 211.962 20.1838L211.755 20.5979L211.401 20.2934C210.169 19.2215 207.961 17.9669 204.361 17.9669C197.212 17.9669 192.405 23.3264 192.405 31.3048C192.405 39.271 197.383 44.8376 204.508 44.8376C206.936 44.8376 208.863 44.2651 210.389 43.1201L210.974 42.6816V43.4247C210.974 47.0058 208.656 48.9669 204.459 48.9669C202.421 48.9669 200.567 48.4675 199.323 48.0168C197.7 47.5296 196.748 47.9315 196.089 49.5516L195.479 51.0498L194.625 53.2423L195.162 53.5225C197.846 54.9476 201.348 55.8003 204.508 55.8003C211.023 55.8003 218.612 52.475 218.612 43.108L218.636 18.5516H215.086Z" fill="#888888"/>
</g>
</g>
</g>
<mask id="mask5_69_15" style="mask-type:luminance" maskUnits="userSpaceOnUse" x="0" y="0" width="367" height="62">
<path d="M0 62H366.02V-1.02818e-05H0V62Z" fill="white"/>
</mask>
<g mask="url(#mask5_69_15)">
<mask id="mask6_69_15" style="mask-type:luminance" maskUnits="userSpaceOnUse" x="36" y="6" width="294" height="50">
<path d="M36.6021 55.8003H329.418V6.1881H36.6021V55.8003Z" fill="white"/>
</mask>
<g mask="url(#mask6_69_15)">
<path d="M49.9375 39.0149L43.7152 39.0028V31.5725C43.7152 29.989 44.3374 29.1607 45.6917 28.9658H49.9375C52.9633 28.9658 54.9276 30.8782 54.9276 33.9599C54.9276 37.1391 53.0243 39.0149 49.9375 39.0149ZM43.7152 18.9776V17.0287C43.7152 15.3234 44.435 14.5073 46.0333 14.3977H49.2177C51.9506 14.3977 53.5855 16.0299 53.5855 18.7584C53.5855 20.8413 52.4631 23.2652 49.3153 23.2652H43.7152V18.9776ZM57.8924 26.3957L56.7699 25.7623L57.7459 24.9218C58.8928 23.9474 60.7961 21.7426 60.7961 17.9301C60.7961 12.1077 56.2697 8.34382 49.2665 8.34382H40.36C38.2859 8.41691 36.6266 10.11 36.6022 12.1929V45.2637H49.4251C57.2091 45.2637 62.2358 41.037 62.2358 34.4715C62.2358 30.9391 60.6131 27.9305 57.8924 26.3957Z" fill="#888888"/>
<path d="M320.451 18.1009C317.279 18.1009 314.216 19.5869 312.24 22.0718L311.691 22.7783L311.252 21.9987C309.836 19.4164 307.396 18.1131 304.017 18.1131C300.466 18.1131 298.087 20.0864 296.977 21.2679L296.257 22.0475L295.976 21.0121C295.574 19.526 294.256 18.7099 292.243 18.7099H289.034L288.998 45.3736H296.294V33.607C296.294 32.5716 296.416 31.5606 296.684 30.4887C297.379 27.6384 299.295 24.5811 302.516 24.8856C304.505 25.0805 305.469 26.6031 305.469 29.563V45.3736H312.826V33.607C312.826 32.3158 312.948 31.3535 313.24 30.3913C313.838 27.675 315.827 24.8977 318.938 24.8977C321.183 24.8977 322.013 26.1645 322.013 29.5873V41.5001C322.013 44.1921 323.221 45.3979 325.917 45.3979H329.357L329.37 28.3693C329.357 21.5602 326.356 18.1009 320.451 18.1009Z" fill="#999999"/>
<path d="M254.043 36.1277C254.018 36.1521 250.883 39.4653 246.747 39.4653C242.977 39.4653 239.17 37.1631 239.17 32.0106C239.17 27.5647 242.123 24.4586 246.344 24.4586C247.711 24.4586 249.272 24.9458 249.516 25.7741L249.553 25.9081C250.114 27.7839 251.822 27.8814 252.152 27.8814H256.153V24.3855C256.153 19.7812 250.285 18.1124 246.344 18.1124C237.901 18.1124 231.776 23.9835 231.776 32.0594C231.776 40.1352 237.828 45.9941 246.185 45.9941C253.433 45.9941 257.373 41.2436 257.41 41.1949L257.617 40.9391L254.445 35.6892L254.043 36.1277Z" fill="#999999"/>
</g>
</g>
</svg>
